<?xml version="1.0" encoding="UTF-8"?>
<svg xmlns="http://www.w3.org/2000/svg" xmlns:xlink="http://www.w3.org/1999/xlink" width="1920" height="1080" viewBox="0 0 1920 1080">
<defs>
<g>
<g id="glyph-0-0">
<path d="M 0.0859375 -0.140625 C 0.410156 -0.171875 0.613281 -0.246094 0.707031 -0.359375 C 0.796875 -0.472656 0.84375 -0.734375 0.84375 -1.144531 L 0.84375 -4.300781 C 0.84375 -4.582031 0.796875 -4.765625 0.710938 -4.851562 C 0.621094 -4.9375 0.421875 -4.984375 0.105469 -5 L 0.105469 -5.144531 L 1.644531 -5.144531 L 3.445312 -1.222656 L 5.164062 -5.144531 L 6.714844 -5.144531 L 6.714844 -5 C 6.425781 -4.980469 6.238281 -4.929688 6.15625 -4.84375 C 6.074219 -4.757812 6.03125 -4.578125 6.03125 -4.300781 L 6.03125 -0.84375 C 6.03125 -0.558594 6.070312 -0.378906 6.15625 -0.296875 C 6.238281 -0.21875 6.425781 -0.164062 6.714844 -0.140625 L 6.714844 0 L 4.535156 0 L 4.535156 -0.140625 C 4.847656 -0.164062 5.042969 -0.222656 5.121094 -0.308594 C 5.199219 -0.398438 5.238281 -0.605469 5.238281 -0.933594 L 5.238281 -4.429688 L 3.246094 0 L 3.140625 0 L 1.183594 -4.246094 L 1.183594 -1.144531 C 1.183594 -0.71875 1.246094 -0.441406 1.371094 -0.3125 C 1.453125 -0.226562 1.632812 -0.171875 1.914062 -0.140625 L 1.914062 0 L 0.0859375 0 Z "/>
</g>
<g id="glyph-0-1">
<path d="M 1.546875 -2.660156 C 2.105469 -2.683594 2.503906 -2.742188 2.746094 -2.835938 C 3.160156 -3.007812 3.363281 -3.324219 3.363281 -3.792969 C 3.363281 -4.242188 3.179688 -4.550781 2.808594 -4.714844 C 2.613281 -4.804688 2.351562 -4.847656 2.023438 -4.847656 C 1.804688 -4.847656 1.667969 -4.832031 1.621094 -4.800781 C 1.570312 -4.769531 1.546875 -4.695312 1.546875 -4.578125 Z M 0.0859375 -0.140625 C 0.386719 -0.167969 0.570312 -0.226562 0.644531 -0.316406 C 0.71875 -0.402344 0.753906 -0.609375 0.753906 -0.933594 L 0.753906 -4.300781 C 0.753906 -4.574219 0.714844 -4.753906 0.632812 -4.839844 C 0.550781 -4.925781 0.367188 -4.980469 0.0859375 -5 L 0.0859375 -5.144531 L 2.242188 -5.144531 C 2.6875 -5.144531 3.0625 -5.089844 3.359375 -4.976562 C 3.925781 -4.761719 4.210938 -4.363281 4.210938 -3.785156 C 4.210938 -3.398438 4.085938 -3.101562 3.832031 -2.894531 C 3.582031 -2.6875 3.238281 -2.550781 2.804688 -2.484375 L 4.410156 -0.511719 C 4.507812 -0.390625 4.605469 -0.300781 4.707031 -0.246094 C 4.804688 -0.191406 4.929688 -0.15625 5.085938 -0.140625 L 5.085938 0 L 3.832031 0 L 1.976562 -2.390625 L 1.546875 -2.375 L 1.546875 -0.84375 C 1.546875 -0.554688 1.589844 -0.371094 1.675781 -0.292969 C 1.765625 -0.214844 1.953125 -0.164062 2.25 -0.140625 L 2.25 0 L 0.0859375 0 Z "/>
</g>
</g>
</defs>
<g fill="rgb(0%, 0%, 0%)" fill-opacity="1">
<use xlink:href="#glyph-0-0" x="30" y="25.833008"/>
<use xlink:href="#glyph-0-1" x="37" y="25.833008"/>
<use xlink:href="#glyph-0-1" x="42" y="25.833008"/>
</g>
</svg>
